<svg width="100" height="100" viewBox="0 0 100 100" fill="none" xmlns="http://www.w3.org/2000/svg">
<rect x="36.0002" y="73.0002" width="35" height="8" fill="#F7F7F7"/>
<path d="M36.0002 73.0002L44.6605 81.0252H27.34L36.0002 73.0002Z" fill="#F7F7F7"/>
<path d="M71.0002 73.0002L79.6605 81.0252H62.34L71.0002 73.0002Z" fill="#F7F7F7"/>
<rect x="28.7" y="29.0002" width="35" height="8" transform="rotate(90 28.7 29.0002)" fill="#F7F7F7"/>
<path d="M28.7 29.0002L20.675 37.6605V20.34L28.7 29.0002Z" fill="#F7F7F7"/>
<path d="M28.7 64.0002L20.675 72.6605V55.34L28.7 64.0002Z" fill="#F7F7F7"/>
<rect x="66.0002" y="27.7" width="35" height="8" transform="rotate(-180 66.0002 27.7)" fill="#F7F7F7"/>
<path d="M66.0002 27.7L57.34 19.675H74.6605L66.0002 27.7Z" fill="#F7F7F7"/>
<path d="M31.0002 27.7L22.34 19.675H39.6605L31.0002 27.7Z" fill="#F7F7F7"/>
<rect x="72.0002" y="71.0002" width="35" height="8" transform="rotate(-90 72.0002 71.0002)" fill="#F7F7F7"/>
<path d="M72.0002 71.0002L80.0252 62.34V79.6605L72.0002 71.0002Z" fill="#F7F7F7"/>
<path d="M72.0002 36.0002L80.0252 27.34V44.6605L72.0002 36.0002Z" fill="#F7F7F7"/>
<rect x="65" y="64.0012" width="21.0004" height="5.00935" transform="rotate(-90 65 64.0012)" fill="#F7F7F7"/>
<path d="M65 63.9999L70.025 58.8036V69.1961L65 63.9999Z" fill="#F7F7F7"/>
<path d="M65 43.0001L70.025 37.8039V48.1964L65 43.0001Z" fill="#F7F7F7"/>
<rect x="58.0011" y="34.7" width="21.0004" height="5.00935" transform="rotate(-180 58.0011 34.7)" fill="#F7F7F7"/>
<path d="M57.9999 34.7L52.8036 29.675H63.1961L57.9999 34.7Z" fill="#F7F7F7"/>
<path d="M37.0001 34.7L31.8039 29.675H42.1964L37.0001 34.7Z" fill="#F7F7F7"/>
<rect x="42.9989" y="66" width="21.0004" height="5.00935" fill="#F7F7F7"/>
<path d="M43.0001 66L48.1964 71.025H37.8039L43.0001 66Z" fill="#F7F7F7"/>
<path d="M63.9999 66L69.1961 71.025H58.8036L63.9999 66Z" fill="#F7F7F7"/>
<rect x="36.7" y="35.9988" width="21.0004" height="5.00935" transform="rotate(90 36.7 35.9988)" fill="#F7F7F7"/>
<path d="M36.7 36.0001L31.675 41.1964V30.8039L36.7 36.0001Z" fill="#F7F7F7"/>
<path d="M36.7 56.9999L31.675 62.1961V51.8036L36.7 56.9999Z" fill="#F7F7F7"/>
<path d="M60.668 48.7461V52.1445H41.1758V48.7461H60.668ZM52.7383 40.4453V61.1484H49.125V40.4453H52.7383Z" fill="#F7F7F7"/>
</svg>
